<svg xmlns="http://www.w3.org/2000/svg" width="120" height="120" viewBox="0 0 120 120">
    <g fill="none" fill-rule="nonzero">
        <circle cx="60" cy="60" r="60" fill="#171F5E"/>
        <path fill="#86E29E" d="M60 117.526c31.77 0 57.526-25.755 57.526-57.526C117.526 28.23 91.77 2.474 60 2.474 28.23 2.474 2.474 28.23 2.474 60c0 31.77 25.755 57.526 57.526 57.526zM60 120C26.863 120 0 93.137 0 60S26.863 0 60 0s60 26.863 60 60-26.863 60-60 60z"/>
        <circle cx="59.5" cy="59.5" r="41.5" fill="#5AC775"/>
        <path fill="#171F5E" d="M84.563 29.528s-1.709 9.615-45.28 22.43c0 0-11.433 3.907-2.553 10.02 0 0 50.438 21.869 55.174 25.16 0 0-13.142 16.578-32.915 13.404 0 0-13.853-16.813-37.532-28.217 0 0-15.866-14.58 6.512-22.574C50.346 41.756 65.383 42.814 83.498 28"/>
        <path fill="#3FAA58" d="M59.5 98.549c21.566 0 39.049-17.483 39.049-39.049S81.066 20.451 59.5 20.451 20.451 37.934 20.451 59.5 37.934 98.549 59.5 98.549zm0 2.451C36.58 101 18 82.42 18 59.5S36.58 18 59.5 18 101 36.58 101 59.5 82.42 101 59.5 101z"/>
    </g>
</svg>
